<svg version="1.1" viewBox="0.0 0.0 1012.2782152230972 784.0997375328084" fill="none" stroke="none" stroke-linecap="square" stroke-miterlimit="10" xmlns:xlink="http://www.w3.org/1999/xlink" xmlns="http://www.w3.org/2000/svg"><clipPath id="p.0"><path d="m0 0l1012.2782 0l0 784.09973l-1012.2782 0l0 -784.09973z" clip-rule="nonzero"/></clipPath><g clip-path="url(#p.0)"><path fill="#000000" fill-opacity="0.0" d="m0 0l1012.2782 0l0 784.09973l-1012.2782 0z" fill-rule="evenodd"/><path fill="#000000" fill-opacity="0.0" d="m91.39121 310.3711l0 0c-8.161751 -57.260223 18.634895 -113.94438 69.01913 -145.99928c50.38423 -32.0549 115.519745 -33.85881 167.76715 -4.6462708l0 0c18.50763 -33.293472 52.38199 -56.28032 91.37674 -62.00746c38.99475 -5.72715 78.529816 6.4780807 106.646576 32.923843l0 0c15.766113 -30.186005 46.723206 -50.46714 81.88599 -53.646606c35.16278 -3.1794662 69.55493 11.192703 90.97235 38.016518l0 0c28.483765 -31.997078 73.802246 -45.469185 116.345764 -34.586853c42.543518 10.882332 74.67096 44.164543 82.48053 85.44521l0 0c34.897522 9.087311 63.96637 32.188446 79.69617 63.334824c15.729797 31.146393 16.577454 67.28259 2.3239746 99.072235l0 0c34.36383 42.69696 42.402405 99.59012 21.115845 149.44797c-21.28656 49.85785 -68.700195 85.18988 -124.546936 92.81073c-0.39361572 46.793335 -27.27533 89.73041 -70.28375 112.26129c-43.008423 22.530884 -95.42761 21.13739 -137.05292 -3.6434937l0 0c-17.730225 56.043213 -67.634766 97.279236 -128.15308 105.89264c-60.51828 8.613403 -120.80124 -16.939941 -154.80438 -65.620056l0 0c-41.680725 23.994568 -91.69418 30.906677 -138.75826 19.177002c-47.064102 -11.729614 -87.2144 -41.112976 -111.393814 -81.52173l0 0c-42.59249 4.7582397 -83.773544 -16.308533 -103.10515 -52.744995c-19.331604 -36.4364 -12.698526 -80.486084 16.607262 -110.28723l0 0c-37.993607 -21.348145 -57.380234 -63.70993 -48.050518 -104.99536c9.329716 -41.28543 45.261627 -72.13907 89.05865 -76.471954z" fill-rule="evenodd"/><path fill="#000000" fill-opacity="0.0" d="m49.541153 494.0453l0 0c17.929298 10.074249 38.641838 14.644165 59.35663 13.096161m27.131927 149.93973c8.908127 -0.9951782 17.63977 -3.102539 25.969772 -6.2678223m224.16986 68.609924c-6.2654114 -8.969727 -11.511108 -18.554749 -15.647766 -28.591553m298.616 -11.682678l0 0c3.232483 -10.217529 5.3268433 -20.73352 6.248169 -31.37262m201.08069 -77.24133c0.41906738 -49.818726 -29.220703 -95.43335 -76.18817 -117.250946m179.61829 -125.00244c-7.606262 16.964233 -19.218018 32.01297 -33.924866 43.96631m-48.088135 -206.3778l0 0c1.2960205 6.85054 1.895813 13.804047 1.7910767 20.76413m-200.61401 -71.62043l0 0c-7.1052856 7.9816895 -12.959106 16.901115 -17.379211 26.480553m-155.48071 -10.853943l0 0c-3.78656 7.249695 -6.6140747 14.921127 -8.417419 22.837555m-189.60883 6.2466583l0 0c11.055511 6.1813507 21.283356 13.621277 30.458893 22.156326m-267.24213 128.49004l0 0c1.1249008 7.8919373 2.902298 15.686584 5.3155594 23.310974" fill-rule="evenodd"/><path stroke="#000000" stroke-width="1.0" stroke-linejoin="round" stroke-linecap="butt" d="m91.39121 310.3711l0 0c-8.161751 -57.260223 18.634895 -113.94438 69.01913 -145.99928c50.38423 -32.0549 115.519745 -33.85881 167.76715 -4.6462708l0 0c18.50763 -33.293472 52.38199 -56.28032 91.37674 -62.00746c38.99475 -5.72715 78.529816 6.4780807 106.646576 32.923843l0 0c15.766113 -30.186005 46.723206 -50.46714 81.88599 -53.646606c35.16278 -3.1794662 69.55493 11.192703 90.97235 38.016518l0 0c28.483765 -31.997078 73.802246 -45.469185 116.345764 -34.586853c42.543518 10.882332 74.67096 44.164543 82.48053 85.44521l0 0c34.897522 9.087311 63.96637 32.188446 79.69617 63.334824c15.729797 31.146393 16.577454 67.28259 2.3239746 99.072235l0 0c34.36383 42.69696 42.402405 99.59012 21.115845 149.44797c-21.28656 49.85785 -68.700195 85.18988 -124.546936 92.81073c-0.39361572 46.793335 -27.27533 89.73041 -70.28375 112.26129c-43.008423 22.530884 -95.42761 21.13739 -137.05292 -3.6434937l0 0c-17.730225 56.043213 -67.634766 97.279236 -128.15308 105.89264c-60.51828 8.613403 -120.80124 -16.939941 -154.80438 -65.620056l0 0c-41.680725 23.994568 -91.69418 30.906677 -138.75826 19.177002c-47.064102 -11.729614 -87.2144 -41.112976 -111.393814 -81.52173l0 0c-42.59249 4.7582397 -83.773544 -16.308533 -103.10515 -52.744995c-19.331604 -36.4364 -12.698526 -80.486084 16.607262 -110.28723l0 0c-37.993607 -21.348145 -57.380234 -63.70993 -48.050518 -104.99536c9.329716 -41.28543 45.261627 -72.13907 89.05865 -76.471954z" fill-rule="evenodd"/><path stroke="#000000" stroke-width="1.0" stroke-linejoin="round" stroke-linecap="butt" d="m49.541153 494.0453l0 0c17.929298 10.074249 38.641838 14.644165 59.35663 13.096161m27.131927 149.93973c8.908127 -0.9951782 17.63977 -3.102539 25.969772 -6.2678223m224.16986 68.609924c-6.2654114 -8.969727 -11.511108 -18.554749 -15.647766 -28.591553m298.616 -11.682678l0 0c3.232483 -10.217529 5.3268433 -20.73352 6.248169 -31.37262m201.08069 -77.24133c0.41906738 -49.818726 -29.220703 -95.43335 -76.18817 -117.250946m179.61829 -125.00244c-7.606262 16.964233 -19.218018 32.01297 -33.924866 43.96631m-48.088135 -206.3778l0 0c1.2960205 6.85054 1.895813 13.804047 1.7910767 20.76413m-200.61401 -71.62043l0 0c-7.1052856 7.9816895 -12.959106 16.901115 -17.379211 26.480553m-155.48071 -10.853943l0 0c-3.78656 7.249695 -6.6140747 14.921127 -8.417419 22.837555m-189.60883 6.2466583l0 0c11.055511 6.1813507 21.283356 13.621277 30.458893 22.156326m-267.24213 128.49004l0 0c1.1249008 7.8919373 2.902298 15.686584 5.3155594 23.310974" fill-rule="evenodd"/></g></svg>